<svg width="19" height="10" viewBox="0 0 19 10" fill="none" xmlns="http://www.w3.org/2000/svg">
<path d="M8.96198 0.599999L5.38598 7.248C5.04198 7.888 4.62598 8.372 4.13798 8.7C3.65798 9.028 3.13398 9.192 2.56598 9.192C2.12598 9.192 1.66998 9.096 1.19798 8.904L1.66598 7.428C2.00198 7.532 2.28198 7.584 2.50598 7.584C2.74598 7.584 2.96198 7.528 3.15398 7.416C3.34598 7.296 3.52198 7.112 3.68198 6.864L3.75398 6.768L0.441984 0.599999H2.51798L4.74998 5.112L7.05398 0.599999H8.96198ZM14.1378 5.616H12.7938V9H10.8618V0.599999H12.7938V3.996H14.1858L16.3938 0.599999H18.4458L15.6978 4.656L18.5298 9H16.3218L14.1378 5.616Z" fill="white"/>
</svg>
