<svg width="18" height="10" viewBox="0 0 18 10" fill="none" xmlns="http://www.w3.org/2000/svg">
<path d="M4.14875 0.599999C4.89275 0.599999 5.53675 0.724 6.08075 0.972C6.63275 1.22 7.05675 1.572 7.35275 2.028C7.64875 2.484 7.79675 3.024 7.79675 3.648C7.79675 4.264 7.64875 4.804 7.35275 5.268C7.05675 5.724 6.63275 6.076 6.08075 6.324C5.53675 6.564 4.89275 6.684 4.14875 6.684H2.45675V9H0.51275V0.599999H4.14875ZM4.04075 5.1C4.62475 5.1 5.06875 4.976 5.37275 4.728C5.67675 4.472 5.82875 4.112 5.82875 3.648C5.82875 3.176 5.67675 2.816 5.37275 2.568C5.06875 2.312 4.62475 2.184 4.04075 2.184H2.45675V5.1H4.04075ZM17.4757 0.599999L13.8997 7.248C13.5557 7.888 13.1397 8.372 12.6517 8.7C12.1717 9.028 11.6477 9.192 11.0797 9.192C10.6397 9.192 10.1837 9.096 9.71166 8.904L10.1797 7.428C10.5157 7.532 10.7957 7.584 11.0197 7.584C11.2597 7.584 11.4757 7.528 11.6677 7.416C11.8597 7.296 12.0357 7.112 12.1957 6.864L12.2677 6.768L8.95566 0.599999H11.0317L13.2637 5.112L15.5677 0.599999H17.4757Z" fill="white"/>
</svg>
